<svg width="43" height="40" viewBox="0 0 43 40" fill="none" xmlns="http://www.w3.org/2000/svg">
<path d="M9.75 34.9862V27.4654V21.5668V20.0922V11.6866L6 8V20.0922V21.5668V31.1521V38.6728V40H10.05L21 29.235L18.3 26.5806L9.75 34.9862Z" fill="white"/>
<path d="M11 27.7037V32.8889L18.4915 25.3333L22.3107 29.1852L33.0339 40H37V38.6667L18.4915 20L11 27.7037Z" fill="white"/>
<path d="M33.25 4.85714V12.1429V20.2857V22V27.4286L37 31V22V20.2857V8.57143V1.28571V0H32.95L22 10.4286L24.7 13L33.25 4.85714Z" fill="white"/>
<path d="M39.0644 0L37.461 1.58845V6.6426L39.3559 4.90975V20.5054V22.2383V35.0902L37.461 33.213L32.0678 28.0144L24.6339 20.5054L3.78983 0H0V20.5054V22.9603V40H3.78983L5.53898 38.4116V33.213L3.64407 35.0902V22.9603V20.5054V4.90975L5.53898 6.6426L10.7864 11.9856L22.0102 23.1047L39.0644 40H43V22.2383V20.5054V0H39.0644Z" fill="white"/>
<path d="M32 11.7687V6.80597L24.5085 14.0373L20.6893 10.3507L9.9661 0H6V1.27612L24.5085 19L32 11.7687Z" fill="white"/>
</svg>
