<svg xmlns="http://www.w3.org/2000/svg" viewBox="0 0 67.3 62.63"><defs><style>.cls-1{fill:#003e51;}</style></defs><g id="Capa_2" data-name="Capa 2"><g id="Capa_1-2" data-name="Capa 1"><polygon class="cls-1" points="25.62 24.21 25.62 19.08 25.62 15.14 25.62 14.14 25.62 8.49 23.13 6 23.13 14.14 23.13 15.14 23.13 21.57 23.13 26.7 23.13 27.57 25.79 27.57 33.08 20.28 31.32 18.52 25.62 24.21"/><polygon class="cls-1" points="26.2 19.31 26.2 22.84 31.32 17.71 33.89 20.28 41.18 27.57 43.83 27.57 43.83 26.7 31.32 14.19 26.2 19.31"/><polygon class="cls-1" points="41.34 3.35 41.34 8.49 41.34 14.14 41.34 15.39 41.34 19.08 43.83 21.57 43.83 15.39 43.83 14.14 43.83 6 43.83 0.86 43.83 0 41.18 0 33.89 7.29 35.65 9.05 41.34 3.35"/><polygon class="cls-1" points="45.5 0 44.4 1.1 44.4 4.62 45.67 3.35 45.67 14.14 45.67 15.39 45.67 24.21 44.4 22.94 44.4 22.95 40.77 19.31 35.65 14.19 21.46 0 18.81 0 18.81 14.14 18.81 15.87 18.81 27.57 21.46 27.57 22.56 26.46 22.56 22.95 21.3 24.21 21.3 15.87 21.3 14.14 21.3 3.35 22.56 4.62 26.2 8.25 33.89 15.95 45.5 27.57 48.16 27.57 48.16 15.39 48.16 14.14 48.16 0 45.5 0"/><polygon class="cls-1" points="40.77 8.25 40.77 4.73 35.65 9.86 33.08 7.29 25.79 0 23.13 0 23.13 0.86 35.65 13.38 40.77 8.25"/><path class="cls-1" d="M9.56,34a1.93,1.93,0,0,0-.42.15.49.49,0,0,0-.2.18.74.74,0,0,0-.11.32,3.69,3.69,0,0,0,0,.67V41a4.81,4.81,0,0,0,0,.64.75.75,0,0,0,.1.32.55.55,0,0,0,.2.2,1.9,1.9,0,0,0,.44.16v.32H6.83v-.32a1.37,1.37,0,0,0,.52-.21.63.63,0,0,0,.19-.35,3.46,3.46,0,0,0,0-.76V38.49c0-.65,0-1.32,0-2s0-1.13.07-1.38H7.58L5,41.6H4.24L1.83,35H1.71c0,.27.05.75.07,1.45s0,1.42,0,2.16V41a4.81,4.81,0,0,0,0,.64,1,1,0,0,0,.09.32.58.58,0,0,0,.21.2,1.78,1.78,0,0,0,.43.16v.32H.18v-.32a1.54,1.54,0,0,0,.55-.23.68.68,0,0,0,.18-.37A5.59,5.59,0,0,0,1,41V35.34a5.17,5.17,0,0,0,0-.66,1,1,0,0,0-.11-.32.49.49,0,0,0-.2-.18A2.09,2.09,0,0,0,.18,34V33.7H2.52l2.3,6.37L7.35,33.7H9.56Z"/><path class="cls-1" d="M17.26,33.7v2h-.64a4.48,4.48,0,0,0-.2-.56,1.94,1.94,0,0,0-.22-.41.87.87,0,0,0-.24-.26.84.84,0,0,0-.32-.14,2.76,2.76,0,0,0-.44,0H13.13v3.43h1.4a1.12,1.12,0,0,0,.46-.08.67.67,0,0,0,.27-.28,2.49,2.49,0,0,0,.2-.62h.62v2.52h-.62a2.32,2.32,0,0,0-.2-.6.71.71,0,0,0-.26-.28,1,1,0,0,0-.47-.09h-1.4v3.78h2a2.4,2.4,0,0,0,.52-.05.81.81,0,0,0,.34-.19,1.39,1.39,0,0,0,.26-.35,4.32,4.32,0,0,0,.19-.45l.2-.68h.65l-.12,2.3H11.14v-.32a1.54,1.54,0,0,0,.55-.23.68.68,0,0,0,.18-.37,5.85,5.85,0,0,0,0-.72V35.34a5.17,5.17,0,0,0,0-.66,1,1,0,0,0-.11-.32.49.49,0,0,0-.2-.18,2.09,2.09,0,0,0-.43-.16V33.7Z"/><path class="cls-1" d="M20.85,38.76V41a3.81,3.81,0,0,0,0,.69A.74.74,0,0,0,21,42a.45.45,0,0,0,.19.17,2.35,2.35,0,0,0,.43.16v.32H18.86v-.32a1.39,1.39,0,0,0,.54-.23.68.68,0,0,0,.18-.37,4.2,4.2,0,0,0,0-.72V35.34a5.17,5.17,0,0,0,0-.66.8.8,0,0,0-.11-.32.49.49,0,0,0-.2-.18,2,2,0,0,0-.42-.16V33.7H22.1a3.88,3.88,0,0,1,2.29.56A2,2,0,0,1,25.15,36a2.38,2.38,0,0,1-.5,1.52,3.13,3.13,0,0,1-1.48,1v.06a1.81,1.81,0,0,1,.68.47,4.81,4.81,0,0,1,.64.94L25.08,41a8,8,0,0,0,.43.72,1.94,1.94,0,0,0,.38.38,1.38,1.38,0,0,0,.5.18v.32H24.58a5.6,5.6,0,0,1-.47-.75c-.15-.26-.3-.53-.44-.81L23.09,40a7.11,7.11,0,0,0-.43-.74,1.68,1.68,0,0,0-.3-.33,1.2,1.2,0,0,0-.31-.13,2.72,2.72,0,0,0-.48,0Zm0-4.46v3.89h.74a4,4,0,0,0,.93-.08,1.69,1.69,0,0,0,.65-.31,1.52,1.52,0,0,0,.48-.64,2.48,2.48,0,0,0,.18-1,2.29,2.29,0,0,0-.21-1,1.47,1.47,0,0,0-.65-.63,2.64,2.64,0,0,0-1.16-.21l-1,0"/><path class="cls-1" d="M33,33.89v1.82H32.3a3,3,0,0,0-.4-.91,1.3,1.3,0,0,0-.57-.48,1.9,1.9,0,0,0-2,.3A3,3,0,0,0,28.53,36a7,7,0,0,0-.3,2.18,8.25,8.25,0,0,0,.25,2.19,3,3,0,0,0,.73,1.37,1.7,1.7,0,0,0,1.19.46,2,2,0,0,0,.88-.16,1.4,1.4,0,0,0,.58-.48,4.09,4.09,0,0,0,.44-1H33v1.88a9,9,0,0,1-1.26.24,10.46,10.46,0,0,1-1.42.08,3,3,0,0,1-2.52-1.12,5.58,5.58,0,0,1-.85-3.36,6.43,6.43,0,0,1,.44-2.46,3.42,3.42,0,0,1,3.35-2.2,9.23,9.23,0,0,1,1.1.06,9.43,9.43,0,0,1,1.16.23"/><path class="cls-1" d="M38.88,42.64v-.32a2.06,2.06,0,0,0,.49-.15A.49.49,0,0,0,39.6,42a.66.66,0,0,0,.08-.37,2.06,2.06,0,0,0,0-.48,3.83,3.83,0,0,0-.15-.58l-.24-.85H36.19l-.23.64c-.11.33-.18.57-.22.74a2.48,2.48,0,0,0-.05.45.78.78,0,0,0,.2.58,1.15,1.15,0,0,0,.61.24v.32H33.71v-.32a1,1,0,0,0,.63-.43,4.32,4.32,0,0,0,.53-1L37.6,33.6h1l2.22,7.3c.11.34.2.6.28.78a1.24,1.24,0,0,0,.29.42,1.08,1.08,0,0,0,.47.22v.32ZM36.36,39.1H39.1l-1.24-4.22Z"/><path class="cls-1" d="M42.81,42.64v-.32a1.86,1.86,0,0,0,.43-.15.52.52,0,0,0,.2-.19.91.91,0,0,0,.11-.32,5.17,5.17,0,0,0,0-.66V35.34a5.25,5.25,0,0,0,0-.67.92.92,0,0,0-.11-.31.49.49,0,0,0-.2-.18,2.09,2.09,0,0,0-.43-.16V33.7h2.86a6.39,6.39,0,0,1,2,.27,3.38,3.38,0,0,1,1.33.81,3.09,3.09,0,0,1,.81,1.31A5.9,5.9,0,0,1,50.11,38a6.72,6.72,0,0,1-.25,1.94,3.76,3.76,0,0,1-.74,1.42,3.27,3.27,0,0,1-1,.81,4,4,0,0,1-1.17.38,11.48,11.48,0,0,1-1.75.11Zm2-.61a7.59,7.59,0,0,0,.78,0,4.22,4.22,0,0,0,1-.1,2.67,2.67,0,0,0,.78-.28,2.21,2.21,0,0,0,.64-.55,2.9,2.9,0,0,0,.46-.81,5.51,5.51,0,0,0,.26-1,9,9,0,0,0,.08-1.22,5.28,5.28,0,0,0-.39-2.18,2.57,2.57,0,0,0-1.08-1.25,3.34,3.34,0,0,0-1.66-.39c-.3,0-.58,0-.85,0Z"/><path class="cls-1" d="M57.81,33.7v2h-.65a4.48,4.48,0,0,0-.2-.56,1.94,1.94,0,0,0-.22-.41.87.87,0,0,0-.24-.26.84.84,0,0,0-.32-.14,2.76,2.76,0,0,0-.44,0H53.67v3.43h1.41a1.1,1.1,0,0,0,.45-.08.67.67,0,0,0,.27-.28,2.9,2.9,0,0,0,.21-.62h.61v2.52H56a2.71,2.71,0,0,0-.21-.6.71.71,0,0,0-.26-.28,1,1,0,0,0-.46-.09H53.67v3.78h2a2.4,2.4,0,0,0,.52-.05.81.81,0,0,0,.34-.19,1.18,1.18,0,0,0,.26-.35A4.32,4.32,0,0,0,57,41c0-.16.12-.38.2-.68h.65l-.12,2.3H51.68v-.32a1.46,1.46,0,0,0,.55-.23.68.68,0,0,0,.18-.37,4.35,4.35,0,0,0,0-.72V35.34a5.17,5.17,0,0,0,0-.66.8.8,0,0,0-.11-.32.49.49,0,0,0-.2-.18,2.09,2.09,0,0,0-.43-.16V33.7Z"/><path class="cls-1" d="M61.39,38.76V41a5.05,5.05,0,0,0,0,.69.74.74,0,0,0,.11.32.52.52,0,0,0,.19.17,2.35,2.35,0,0,0,.43.16v.32H59.4v-.32a1.39,1.39,0,0,0,.54-.23.68.68,0,0,0,.18-.37,4.2,4.2,0,0,0,0-.72V35.34a5.17,5.17,0,0,0,0-.66.8.8,0,0,0-.11-.32.44.44,0,0,0-.2-.18A2,2,0,0,0,59.4,34V33.7h3.24a3.88,3.88,0,0,1,2.29.56A2,2,0,0,1,65.69,36a2.38,2.38,0,0,1-.5,1.52,3.13,3.13,0,0,1-1.48,1v.06a1.84,1.84,0,0,1,.69.47A4.43,4.43,0,0,1,65,40L65.62,41a8,8,0,0,0,.43.72,1.94,1.94,0,0,0,.38.38,1.38,1.38,0,0,0,.5.18v.32H65.12a6.84,6.84,0,0,1-.47-.75c-.15-.26-.3-.53-.44-.81L63.63,40a5.67,5.67,0,0,0-.43-.74,1.68,1.68,0,0,0-.3-.33,1.3,1.3,0,0,0-.3-.13,2.93,2.93,0,0,0-.49,0Zm0-4.46v3.89h.74a4,4,0,0,0,.93-.08,1.69,1.69,0,0,0,.65-.31,1.52,1.52,0,0,0,.48-.64,2.48,2.48,0,0,0,.18-1,2.29,2.29,0,0,0-.21-1,1.47,1.47,0,0,0-.65-.63,2.64,2.64,0,0,0-1.16-.21l-1,0"/><path class="cls-1" d="M5.27,52.54A4.66,4.66,0,0,1,4,53.3a3.86,3.86,0,0,1-1.39.23,3.27,3.27,0,0,1-1.38-.27,2.07,2.07,0,0,1-.9-.77A2.13,2.13,0,0,1,0,51.32a2.34,2.34,0,0,1,.2-1,2.72,2.72,0,0,1,.64-.85A6.68,6.68,0,0,1,2,48.65a5.15,5.15,0,0,1-.68-1.14,3,3,0,0,1-.2-1.06,1.87,1.87,0,0,1,.31-1.07,2.05,2.05,0,0,1,.9-.73,3,3,0,0,1,1.28-.26,4.22,4.22,0,0,1,.82.08,1.94,1.94,0,0,1,.67.29,1.39,1.39,0,0,1,.45.51,1.62,1.62,0,0,1,.17.77,1.84,1.84,0,0,1,0,.41,1.74,1.74,0,0,1-.14.38,2.31,2.31,0,0,1-.24.37,2.53,2.53,0,0,1-.4.41,5,5,0,0,1-.66.47c-.27.17-.56.35-.89.53.22.29.55.7,1,1.22s.87,1,1.31,1.5a3.39,3.39,0,0,0,.65-.9,2,2,0,0,0,.22-.93A.74.74,0,0,0,6.39,49a.71.71,0,0,0-.5-.21v-.32H7.75v.32a2.63,2.63,0,0,1-.06.39c0,.12-.06.25-.1.37s-.09.25-.14.37a3,3,0,0,1-.18.36,2.77,2.77,0,0,1-.22.37,3.18,3.18,0,0,1-.27.37c-.1.13-.21.25-.33.38s-.25.25-.38.38a5.31,5.31,0,0,0,.56.58,2.1,2.1,0,0,0,.42.3.92.92,0,0,0,.39.09.85.85,0,0,0,.38-.09,2.75,2.75,0,0,0,.48-.35l.3.37a3,3,0,0,1-.82.64,1.77,1.77,0,0,1-.82.22,1.89,1.89,0,0,1-.56-.08,1.91,1.91,0,0,1-.49-.28,7.16,7.16,0,0,1-.64-.63M2.4,49.12a2.94,2.94,0,0,0-.93.88,1.89,1.89,0,0,0-.3,1,2,2,0,0,0,.22.94,1.5,1.5,0,0,0,.61.59,1.92,1.92,0,0,0,.87.2,3.28,3.28,0,0,0,1-.15,3.67,3.67,0,0,0,1-.53l-.61-.7L3.19,50.11l-.47-.58Zm.62-1a4.16,4.16,0,0,0,1.27-.95,1.67,1.67,0,0,0,.42-1.07,1.29,1.29,0,0,0-.14-.64.91.91,0,0,0-.4-.42,1.3,1.3,0,0,0-.6-.14,1.4,1.4,0,0,0-.68.17,1.12,1.12,0,0,0-.46.48,1.54,1.54,0,0,0-.17.75,2,2,0,0,0,.17.82,4.28,4.28,0,0,0,.59,1"/><path class="cls-1" d="M23.74,44.81a1.64,1.64,0,0,0-.41.15.46.46,0,0,0-.21.18.91.91,0,0,0-.11.32,5.36,5.36,0,0,0,0,.67v5.66c0,.29,0,.51,0,.64a1,1,0,0,0,.1.32.58.58,0,0,0,.21.2,2.35,2.35,0,0,0,.43.16v.32H21v-.32a1.37,1.37,0,0,0,.52-.21.7.7,0,0,0,.2-.35,4.33,4.33,0,0,0,.05-.76V49.28c0-.66,0-1.32,0-2s0-1.13.07-1.38h-.12l-2.59,6.49h-.75L16,45.79H15.9c0,.27,0,.75.06,1.45s0,1.42,0,2.15v2.4a4.81,4.81,0,0,0,0,.64.8.8,0,0,0,.1.32.48.48,0,0,0,.2.2,2.24,2.24,0,0,0,.44.16v.32H14.37v-.32a1.24,1.24,0,0,0,.54-.24.62.62,0,0,0,.18-.36,4.35,4.35,0,0,0,0-.72V46.13a5.17,5.17,0,0,0,0-.66.8.8,0,0,0-.11-.32.49.49,0,0,0-.2-.18,2,2,0,0,0-.42-.16v-.32H16.7L19,50.86l2.53-6.37h2.21Z"/><path class="cls-1" d="M29.82,53.53a3.68,3.68,0,0,1-1.43-.26,2.82,2.82,0,0,1-1.11-.8,4,4,0,0,1-.71-1.4,7.2,7.2,0,0,1-.25-2,6.46,6.46,0,0,1,.44-2.5A3.56,3.56,0,0,1,28,44.93,3.43,3.43,0,0,1,30,44.39a3.55,3.55,0,0,1,2,.51,3.15,3.15,0,0,1,1.2,1.51,6.51,6.51,0,0,1,.4,2.43,6.39,6.39,0,0,1-.46,2.59A3.35,3.35,0,0,1,31.77,53a3.6,3.6,0,0,1-1.95.52m-2.15-4.68a6.42,6.42,0,0,0,.58,3.06A1.86,1.86,0,0,0,30,53a1.75,1.75,0,0,0,1.21-.46,2.75,2.75,0,0,0,.74-1.33,7.42,7.42,0,0,0,.25-2.05,8.33,8.33,0,0,0-.29-2.37,2.85,2.85,0,0,0-.79-1.36,1.89,1.89,0,0,0-2.19-.15,2.14,2.14,0,0,0-.7.78,4,4,0,0,0-.4,1.23,8.71,8.71,0,0,0-.13,1.6"/><path class="cls-1" d="M38.09,52.83H39.8a2.84,2.84,0,0,0,.47,0,1,1,0,0,0,.33-.1.72.72,0,0,0,.24-.19,1.77,1.77,0,0,0,.21-.32,3.73,3.73,0,0,0,.18-.49c.06-.2.14-.5.22-.89h.66L42,53.43H36.1v-.32a1.24,1.24,0,0,0,.54-.24.62.62,0,0,0,.18-.36,4.35,4.35,0,0,0,0-.72V46.13a5.17,5.17,0,0,0,0-.66.8.8,0,0,0-.11-.32.44.44,0,0,0-.2-.18,2,2,0,0,0-.42-.16v-.32h2.75v.32a2.66,2.66,0,0,0-.41.14.65.65,0,0,0-.2.17.74.74,0,0,0-.11.32,3.81,3.81,0,0,0,0,.69Z"/><path class="cls-1" d="M46.3,51.79c0,.29,0,.51,0,.64a1,1,0,0,0,.1.32.58.58,0,0,0,.21.2,2.35,2.35,0,0,0,.43.16v.32H44.3v-.32a1.24,1.24,0,0,0,.54-.24.62.62,0,0,0,.18-.36,4.35,4.35,0,0,0,0-.72V46.13a5.17,5.17,0,0,0,0-.66.74.74,0,0,0-.11-.32.52.52,0,0,0-.2-.19,3,3,0,0,0-.42-.15v-.32h2.76v.32a1.64,1.64,0,0,0-.41.15.46.46,0,0,0-.21.18.91.91,0,0,0-.11.32,5.36,5.36,0,0,0,0,.67Z"/><path class="cls-1" d="M54.91,49.89c.16.26.29.49.4.68l.33.66h.08c0-.26,0-.79-.06-1.58s0-1.51,0-2.15V46.13a5.17,5.17,0,0,0,0-.66.75.75,0,0,0-.1-.32.39.39,0,0,0-.18-.18,2.35,2.35,0,0,0-.43-.16v-.32h2.36v.32a1.59,1.59,0,0,0-.42.15.52.52,0,0,0-.19.17.83.83,0,0,0-.12.31,5.05,5.05,0,0,0,0,.69v7.34h-.81L52,47.35l-.49-.83c-.09-.17-.18-.35-.26-.52h-.12c0,.34.06,1,.07,1.83s0,1.75,0,2.63v1.33a4.81,4.81,0,0,0,0,.64.8.8,0,0,0,.1.32.48.48,0,0,0,.2.2,2.24,2.24,0,0,0,.44.16v.32H49.63v-.32a1.24,1.24,0,0,0,.54-.24.62.62,0,0,0,.18-.36,4.35,4.35,0,0,0,0-.72V46.13a5.17,5.17,0,0,0,0-.66.74.74,0,0,0-.11-.32.49.49,0,0,0-.2-.18,2,2,0,0,0-.42-.16v-.32h2Z"/><path class="cls-1" d="M64,53.43v-.32a2.66,2.66,0,0,0,.49-.15.56.56,0,0,0,.24-.22.79.79,0,0,0,.07-.37,2.06,2.06,0,0,0,0-.48,3.83,3.83,0,0,0-.15-.58l-.24-.85H61.26L61,51.1a6.73,6.73,0,0,0-.23.74,2.48,2.48,0,0,0-.05.45.74.74,0,0,0,.2.57,1.08,1.08,0,0,0,.61.25v.32H58.78v-.32a1,1,0,0,0,.64-.43,4.25,4.25,0,0,0,.52-1l2.73-7.24h1l2.22,7.3a7.31,7.31,0,0,0,.28.77,1.24,1.24,0,0,0,.29.42,1.15,1.15,0,0,0,.47.23v.32Zm-2.52-3.54h2.74l-1.24-4.22Z"/><path class="cls-1" d="M13,62.26a.39.39,0,0,1-.1-.14,2,2,0,0,1-.11-.29L11.93,59h-.48L10.38,61.8a1.74,1.74,0,0,1-.2.39.29.29,0,0,1-.21.14H9.92v.24h1.2v-.24h0a.42.42,0,0,1-.2-.07.24.24,0,0,1-.06-.18,1,1,0,0,1,0-.16,1.83,1.83,0,0,1,.08-.28l.07-.21h1.09l.09.29c0,.08,0,.15.05.21a1.41,1.41,0,0,1,0,.18.27.27,0,0,1,0,.11.13.13,0,0,1-.07.06.3.3,0,0,1-.17,0h-.05v.24h1.29v-.23h-.05a.42.42,0,0,1-.15-.08m-1-1.17h-.9l.49-1.37Z"/><path class="cls-1" d="M18.6,60.69l.25-.15a.85.85,0,0,0,.24-.29.88.88,0,0,0,.09-.41.77.77,0,0,0-.13-.47.81.81,0,0,0-.39-.27A2,2,0,0,0,18,59H16.55v.23h0l.15,0s.05,0,.06.05a.29.29,0,0,1,0,.1,1.63,1.63,0,0,1,0,.25v2.19a1.71,1.71,0,0,1,0,.26.23.23,0,0,1,0,.11.79.79,0,0,1-.19.08h0v.23h1.36a2,2,0,0,0,.69-.1.93.93,0,0,0,.46-.34,1,1,0,0,0,.16-.6A.84.84,0,0,0,19,61a1,1,0,0,0-.43-.3m-1.16.21h.33a1.27,1.27,0,0,1,.49.07.48.48,0,0,1,.25.21,1,1,0,0,1,0,.76.47.47,0,0,1-.24.22,1.24,1.24,0,0,1-.49.08l-.35,0Zm.93-.52a.77.77,0,0,1-.55.17h-.38V59.36h.43a1.27,1.27,0,0,1,.28,0,.4.4,0,0,1,.21.09.32.32,0,0,1,.14.16.6.6,0,0,1,.05.26.63.63,0,0,1-.18.49"/><path class="cls-1" d="M25.07,59.17a1.41,1.41,0,0,0-.79-.21,1.34,1.34,0,0,0-.77.23,1.4,1.4,0,0,0-.52.64,2.66,2.66,0,0,0-.17,1,2.69,2.69,0,0,0,.1.8,1.52,1.52,0,0,0,.28.57,1.39,1.39,0,0,0,.46.33,1.7,1.7,0,0,0,.57.1,1.48,1.48,0,0,0,.79-.21,1.4,1.4,0,0,0,.52-.64,2.59,2.59,0,0,0,.18-1,2.47,2.47,0,0,0-.16-1,1.28,1.28,0,0,0-.49-.62m-.78,3.11a.67.67,0,0,1-.61-.38,2.34,2.34,0,0,1-.22-1.15,3.76,3.76,0,0,1,.05-.61,1.32,1.32,0,0,1,.15-.45.72.72,0,0,1,.25-.29.69.69,0,0,1,.36-.09.63.63,0,0,1,.41.15A1,1,0,0,1,25,60a3.12,3.12,0,0,1,.11.89,2.59,2.59,0,0,1-.1.78,1,1,0,0,1-.27.49.61.61,0,0,1-.42.16"/><path class="cls-1" d="M31,61.12l.05,0a.34.34,0,0,1,.17.07.32.32,0,0,1,.07.13,2.05,2.05,0,0,1,0,.31v.15a.43.43,0,0,1-.13.36.55.55,0,0,1-.4.12.61.61,0,0,1-.43-.17,1,1,0,0,1-.27-.5,3.31,3.31,0,0,1-.1-.83,2.39,2.39,0,0,1,.12-.81,1.06,1.06,0,0,1,.3-.5.65.65,0,0,1,.44-.16.87.87,0,0,1,.31,0,.43.43,0,0,1,.2.16,1,1,0,0,1,.15.34v0h.36v-.8h0a3.28,3.28,0,0,0-.49-.1,3.33,3.33,0,0,0-.46,0,1.39,1.39,0,0,0-1.34.89,2.4,2.4,0,0,0-.18,1,2.31,2.31,0,0,0,.33,1.34,1.21,1.21,0,0,0,1,.46,1.73,1.73,0,0,0,.42,0,1.27,1.27,0,0,0,.32-.13l.18.19.28-.08V61.39a1,1,0,0,1,0-.12.24.24,0,0,1,.06-.08l.11-.06h0v-.23H31Z"/><path class="cls-1" d="M38.34,62.26a.38.38,0,0,1-.09-.14,2.63,2.63,0,0,1-.11-.29L37.27,59h-.49L35.71,61.8a1.77,1.77,0,0,1-.19.39.29.29,0,0,1-.21.14h-.05v.24h1.2v-.24h-.05a.43.43,0,0,1-.21-.07.24.24,0,0,1-.05-.18.92.92,0,0,1,0-.16l.09-.28.07-.21h1.09l.08.29c0,.08,0,.15.06.21a1.41,1.41,0,0,1,0,.18.16.16,0,0,1,0,.11.09.09,0,0,1-.06.06.39.39,0,0,1-.18,0h0v.24h1.28v-.23h0a.48.48,0,0,1-.16-.08m-1-1.17h-.89l.49-1.37Z"/><path class="cls-1" d="M44.39,59.44a1.63,1.63,0,0,0-.54-.33,2.6,2.6,0,0,0-.8-.1H41.88v.23h0l.15,0,.06.05a.62.62,0,0,1,0,.1,1.56,1.56,0,0,1,0,.25v2.19a1.49,1.49,0,0,1,0,.24.23.23,0,0,1,0,.1l-.06.05-.15.06h0v.23h1a4.25,4.25,0,0,0,.69,0,1.31,1.31,0,0,0,.46-.15,1.14,1.14,0,0,0,.42-.33,1.42,1.42,0,0,0,.29-.56,2.57,2.57,0,0,0,.1-.77,2.39,2.39,0,0,0-.1-.75,1.26,1.26,0,0,0-.33-.53M43,62.23h-.24V59.35H43a1.17,1.17,0,0,1,.61.14,1,1,0,0,1,.4.45,2.16,2.16,0,0,1,.14.82,3.23,3.23,0,0,1,0,.46,1.91,1.91,0,0,1-.1.38,1.11,1.11,0,0,1-.17.3.66.66,0,0,1-.22.19,1,1,0,0,1-.29.11,2.05,2.05,0,0,1-.37,0"/><path class="cls-1" d="M50.67,59.17a1.41,1.41,0,0,0-.79-.21,1.38,1.38,0,0,0-1.29.87,2.47,2.47,0,0,0-.18,1,3.06,3.06,0,0,0,.1.8,1.7,1.7,0,0,0,.29.57,1.45,1.45,0,0,0,.45.33,1.81,1.81,0,0,0,.58.1,1.45,1.45,0,0,0,.78-.21,1.41,1.41,0,0,0,.53-.64,2.59,2.59,0,0,0,.18-1,2.67,2.67,0,0,0-.16-1,1.28,1.28,0,0,0-.49-.62m-.79,3.11a.68.68,0,0,1-.61-.38,2.48,2.48,0,0,1-.21-1.15,3.82,3.82,0,0,1,0-.61,2,2,0,0,1,.15-.45.82.82,0,0,1,.26-.29.63.63,0,0,1,.35-.09.64.64,0,0,1,.42.15,1.12,1.12,0,0,1,.29.5,3.12,3.12,0,0,1,.11.89,3,3,0,0,1-.1.78,1,1,0,0,1-.27.49.65.65,0,0,1-.43.16"/><path class="cls-1" d="M56.94,61.15a1.07,1.07,0,0,0-.3-.34,3.36,3.36,0,0,0-.51-.31,1.81,1.81,0,0,1-.39-.23.55.55,0,0,1-.25-.48.53.53,0,0,1,.07-.26.39.39,0,0,1,.18-.16.6.6,0,0,1,.27-.06.76.76,0,0,1,.29,0,.41.41,0,0,1,.18.15.87.87,0,0,1,.13.33l0,0H57v-.79h0a2.7,2.7,0,0,0-.47-.09,2.36,2.36,0,0,0-.38,0,1.62,1.62,0,0,0-.61.11,1,1,0,0,0-.42.35,1,1,0,0,0-.14.52.86.86,0,0,0,.09.39.91.91,0,0,0,.27.32,2.51,2.51,0,0,0,.48.3,3.67,3.67,0,0,1,.45.26.55.55,0,0,1,.19.22.65.65,0,0,1,.06.29.53.53,0,0,1-.14.41.56.56,0,0,1-.41.14.73.73,0,0,1-.32-.06.47.47,0,0,1-.2-.17,1,1,0,0,1-.13-.33v0h-.36v.8h0a3.89,3.89,0,0,0,.93.14,2.26,2.26,0,0,0,.47,0,1.11,1.11,0,0,0,.38-.18.89.89,0,0,0,.25-.32,1.14,1.14,0,0,0,.09-.48.87.87,0,0,0-.11-.44"/><path class="cls-1" d="M66.49,45.12l0-.1a.34.34,0,0,0-.13-.23.37.37,0,0,0,.19-.32.37.37,0,0,0-.12-.29.68.68,0,0,0-.42-.11,1.75,1.75,0,0,0-.35,0h0v1.31h.3V44.9H66c.1,0,.15,0,.19.19a2.55,2.55,0,0,0,.08.31l0,0h.32l0-.06a1.54,1.54,0,0,1-.07-.24m-.28-.63c0,.1-.08.17-.21.17h-.1v-.33H66c.13,0,.2.06.2.17"/><path class="cls-1" d="M66,43.46A1.29,1.29,0,1,0,66,46a1.29,1.29,0,0,0,0-2.57m0,2.34a1.06,1.06,0,1,1,1-1,1,1,0,0,1-1,1"/></g></g></svg>