<svg width="248" height="70" viewBox="0 0 248 70" fill="none" xmlns="http://www.w3.org/2000/svg">
<g clip-path="url(#clip0_158_203)">
<path d="M113.284 2.17139C112.949 2.2285 112.626 2.33886 112.326 2.49828C112.133 2.60032 111.965 2.74387 111.835 2.91856C111.69 3.15172 111.602 3.41565 111.578 3.68907C111.541 4.2099 111.541 4.73262 111.578 5.25345V18.5156C111.545 19.021 111.545 19.5279 111.578 20.0333C111.617 20.2928 111.696 20.5448 111.811 20.7805C111.939 20.9701 112.107 21.1294 112.302 21.2474C112.622 21.4049 112.959 21.5225 113.307 21.5977V22.3682H106.88V21.5977C107.322 21.4915 107.736 21.2925 108.095 21.014C108.339 20.812 108.505 20.5311 108.563 20.2201C108.615 19.6219 108.615 19.0204 108.563 18.4222V12.655C108.563 11.0985 108.563 9.54186 108.563 7.98527C108.563 6.39754 108.563 5.32349 108.726 4.73977H108.469L102.556 19.9166H100.803L95.1472 4.45958H94.8901C94.8901 5.09 94.8902 6.21075 95.0304 7.84517C95.1706 9.4796 95.0304 11.1841 95.0304 12.9119V18.5156C94.9974 19.021 94.9974 19.5279 95.0304 20.0333C95.0585 20.2953 95.1379 20.5491 95.2641 20.7805C95.3765 20.9742 95.5376 21.1352 95.7315 21.2474C96.0595 21.4037 96.4047 21.5213 96.7599 21.5977V22.3682H91.1506V21.5977C91.6611 21.529 92.1447 21.3277 92.5529 21.014C92.7945 20.794 92.9516 20.4967 92.997 20.1734C93.0322 19.6058 93.0322 19.0365 92.997 18.4689V5.25345C93.031 4.74033 93.031 4.22554 92.997 3.71242C92.9544 3.44319 92.8675 3.18285 92.7399 2.94191C92.6128 2.77293 92.454 2.6302 92.2725 2.52163C91.9531 2.3642 91.6156 2.24657 91.2675 2.17139V1.40088H96.7599L102.159 16.3442L108.095 1.40088H113.284V2.17139Z" fill="#003E51"/>
<path d="M131.374 1.40088V6.07066H129.878C129.715 5.55698 129.551 5.1367 129.387 4.73977C129.25 4.41079 129.078 4.09764 128.873 3.80582C128.724 3.56488 128.534 3.35158 128.312 3.1754C128.087 3.02294 127.832 2.91952 127.564 2.87186C127.223 2.83186 126.878 2.83186 126.536 2.87186H121.675V10.8105H124.97C125.332 10.8228 125.692 10.7509 126.022 10.6003C126.302 10.4631 126.526 10.2317 126.653 9.94658C126.892 9.50148 127.058 9.02046 127.144 8.52229H128.546V14.4062H127.144C127.046 13.9292 126.889 13.4664 126.676 13.0286C126.529 12.7512 126.312 12.5175 126.045 12.3515C125.707 12.2054 125.338 12.1414 124.97 12.1647H121.675V21.014H126.349C126.759 21.0235 127.168 20.9763 127.564 20.8739C127.931 20.8375 128.276 20.6816 128.546 20.4302C128.798 20.1979 129.004 19.9208 129.154 19.613C129.3 19.3111 129.425 18.9989 129.528 18.6791C129.528 18.3055 129.808 17.7918 129.995 17.0913H131.538L131.234 22.4849H117V21.5977C117.468 21.5058 117.909 21.3059 118.286 21.014C118.511 20.7853 118.659 20.491 118.706 20.1734C118.753 19.6062 118.753 19.0361 118.706 18.4689V5.25345C118.74 4.74033 118.74 4.22554 118.706 3.71242C118.675 3.44062 118.587 3.17829 118.449 2.94191C118.322 2.77293 118.163 2.6302 117.982 2.52163C117.664 2.36038 117.326 2.24258 116.977 2.17139V1.40088H131.374Z" fill="#003E51"/>
<path d="M139.788 13.2621V18.469C139.739 19.0049 139.739 19.5441 139.788 20.08C139.815 20.3456 139.903 20.6013 140.045 20.8272C140.163 20.9955 140.314 21.1384 140.489 21.2475C140.808 21.4049 141.146 21.5225 141.494 21.5977V22.3682H135.113V21.5977C135.575 21.5066 136.008 21.3064 136.376 21.014C136.613 20.7942 136.763 20.4954 136.796 20.1734C136.846 19.6064 136.846 19.036 136.796 18.469V5.25348C136.846 4.74099 136.846 4.22493 136.796 3.71245C136.771 3.44248 136.692 3.18038 136.563 2.94193C136.432 2.76725 136.264 2.6237 136.072 2.52165C135.76 2.36068 135.43 2.23536 135.09 2.14807V1.40091H142.686C144.57 1.26984 146.449 1.72674 148.062 2.70845C148.676 3.18305 149.162 3.80299 149.476 4.5123C149.79 5.2216 149.923 5.99793 149.861 6.77115C149.895 8.06083 149.482 9.32263 148.693 10.3435C147.781 11.4407 146.572 12.2515 145.21 12.6784V12.8185C145.825 13.056 146.377 13.4315 146.823 13.9159C147.405 14.5907 147.899 15.3359 148.295 16.1341L149.698 18.6791C150.009 19.2578 150.353 19.819 150.726 20.3602C150.973 20.7011 151.273 21.0006 151.614 21.2475C151.963 21.4817 152.364 21.6261 152.783 21.6678V22.4383H148.529C148.155 21.8779 147.781 21.2942 147.43 20.6871C147.08 20.08 146.729 19.4263 146.402 18.7725L145.047 16.2041C144.748 15.6155 144.412 15.0462 144.042 14.4996C143.856 14.1958 143.609 13.9335 143.317 13.7291C143.108 13.5742 142.869 13.4631 142.616 13.4022C142.243 13.3711 141.867 13.3711 141.494 13.4022L139.788 13.2621ZM139.788 2.82519V11.9313H141.541C142.264 11.9201 142.985 11.834 143.691 11.6744C144.295 11.5397 144.856 11.2552 145.322 10.8472C145.787 10.4392 146.143 9.92071 146.355 9.33953C146.652 8.59766 146.795 7.80335 146.776 7.00464C146.791 6.19935 146.623 5.40119 146.285 4.66975C145.96 4.02163 145.425 3.50298 144.766 3.19877C143.907 2.81609 142.971 2.64014 142.032 2.6851C141.112 2.6851 140.333 2.6851 139.694 2.6851" fill="#003E51"/>
<path d="M168.278 1.84462V6.09412H166.642C166.457 5.33678 166.141 4.61767 165.707 3.96937C165.372 3.49211 164.922 3.10672 164.399 2.84862C163.821 2.6108 163.2 2.49934 162.575 2.52173C161.537 2.51926 160.532 2.89248 159.747 3.57243C158.835 4.43473 158.166 5.52189 157.808 6.72454C157.304 8.38115 157.068 10.1071 157.106 11.8379C157.07 13.5686 157.267 15.2963 157.691 16.9747C157.968 18.1773 158.566 19.2826 159.42 20.1735C159.789 20.5291 160.224 20.8073 160.702 20.9918C161.18 21.1763 161.69 21.2632 162.202 21.2476C162.896 21.3111 163.596 21.2317 164.258 21.0141C164.805 20.7617 165.273 20.3664 165.614 19.87C166.069 19.1462 166.416 18.3595 166.642 17.5351H168.278V21.8313C167.31 22.0863 166.326 22.2812 165.333 22.415C164.232 22.5407 163.124 22.6031 162.015 22.6018C160.889 22.6693 159.764 22.4647 158.735 22.0054C157.705 21.5461 156.802 20.8457 156.101 19.9634C154.612 17.6213 153.915 14.8626 154.115 12.0948C154.067 10.123 154.417 8.16168 155.143 6.3276C155.747 4.77852 156.813 3.45249 158.197 2.5294C159.581 1.60631 161.216 1.13084 162.879 1.1675C163.746 1.16373 164.612 1.21051 165.474 1.30759C166.42 1.42292 167.357 1.60234 168.278 1.84462Z" fill="#003E51"/>
<path d="M182.091 22.3683V21.5978C182.485 21.535 182.869 21.4252 183.236 21.2709C183.474 21.1641 183.67 20.984 183.797 20.7572C183.932 20.4813 183.996 20.1766 183.984 19.8699C184.016 19.4971 184.016 19.1221 183.984 18.7492C183.984 18.3523 183.774 17.8853 183.61 17.395L183.049 15.4103H175.781L175.29 16.9046C175.033 17.6752 174.869 18.2355 174.776 18.6325C174.707 18.9788 174.668 19.3303 174.659 19.6832C174.632 19.9293 174.66 20.1784 174.741 20.4125C174.822 20.6466 174.953 20.86 175.126 21.0374C175.537 21.3584 176.032 21.5531 176.552 21.5978V22.3683H170.008V21.5978C170.309 21.5405 170.597 21.4244 170.853 21.2561C171.11 21.0878 171.331 20.8707 171.504 20.6171C172.002 19.8874 172.418 19.1043 172.742 18.2822L179.1 1.16748H181.437L186.742 18.2822C186.999 19.0761 187.21 19.6832 187.397 20.1034C187.552 20.4737 187.783 20.8077 188.074 21.0841C188.389 21.3489 188.768 21.5261 189.173 21.5978V22.3683H182.091ZM176.201 14.0094H182.605L179.684 4.17949L176.201 14.0094Z" fill="#003E51"/>
<path d="M191.3 22.3683V21.5978C191.655 21.5214 192 21.4039 192.328 21.2476C192.509 21.139 192.668 20.9963 192.795 20.8273C192.923 20.5947 193.01 20.342 193.052 20.0802C193.085 19.5592 193.085 19.0367 193.052 18.5158V5.2536C193.086 4.73267 193.086 4.21015 193.052 3.68923C193.014 3.4263 192.927 3.17287 192.795 2.94206C192.668 2.77309 192.509 2.63036 192.328 2.52178C191.999 2.36171 191.654 2.2365 191.3 2.1482V1.40103H198.031C199.614 1.36015 201.194 1.58105 202.705 2.0548C203.869 2.43572 204.931 3.07424 205.814 3.92271C206.724 4.77228 207.413 5.82996 207.824 7.00477C208.276 8.43092 208.489 9.92203 208.455 11.4177C208.484 12.9558 208.287 14.4898 207.87 15.9707C207.523 17.1811 206.935 18.3089 206.141 19.2863C205.486 20.0628 204.694 20.7119 203.804 21.2009C202.924 21.6492 201.976 21.949 200.999 22.0882C199.638 22.2999 198.262 22.3937 196.885 22.3683H191.3ZM195.974 20.9207C196.573 20.9526 197.174 20.9526 197.774 20.9207C198.558 20.9306 199.341 20.8602 200.111 20.7106C200.756 20.5771 201.379 20.3489 201.957 20.0335C202.539 19.7125 203.048 19.2754 203.453 18.7493C203.911 18.1808 204.274 17.5422 204.528 16.858C204.803 16.1004 205.007 15.3187 205.136 14.5231C205.261 13.5787 205.323 12.6271 205.323 11.6745C205.384 9.92485 205.074 8.182 204.411 6.56114C203.92 5.33353 203.032 4.30585 201.887 3.64253C200.685 3.01178 199.341 2.69833 197.984 2.73192C197.283 2.73192 196.628 2.73192 195.997 2.73192L195.974 20.9207Z" fill="#003E51"/>
<path d="M226.498 1.40088V6.07066H225.002C224.838 5.55698 224.698 5.1367 224.535 4.73977C224.388 4.41531 224.216 4.103 224.02 3.80582C223.856 3.56926 223.66 3.35703 223.436 3.1754C223.213 3.01894 222.957 2.91515 222.688 2.87186C222.347 2.83186 222.001 2.83186 221.66 2.87186H216.822V10.8105H220.094C220.464 10.8265 220.832 10.7545 221.169 10.6003C221.45 10.4631 221.673 10.2317 221.8 9.94658C222.019 9.49253 222.183 9.01453 222.291 8.52229H223.717V14.4062H222.291C222.187 13.9278 222.022 13.4648 221.8 13.0286C221.668 12.7486 221.457 12.5132 221.192 12.3515C220.847 12.2017 220.47 12.1376 220.094 12.1647H216.822V21.014H221.496C221.906 21.0247 222.315 20.9776 222.712 20.8739C223.019 20.8023 223.302 20.649 223.53 20.4302C223.766 20.1903 223.963 19.9145 224.114 19.613C224.325 19.3209 224.505 19.008 224.651 18.6791L225.142 17.0913H226.708L226.404 22.4849H212.147V21.5977C212.609 21.5066 213.042 21.3064 213.41 21.014C213.644 20.7917 213.793 20.4942 213.83 20.1734C213.919 19.6097 213.958 19.0394 213.947 18.4689V5.25345C213.997 4.74097 213.997 4.2249 213.947 3.71242C213.922 3.44245 213.843 3.18035 213.713 2.94191C213.578 2.77224 213.411 2.62966 213.223 2.52163C212.913 2.35939 212.583 2.24149 212.241 2.17139V1.40088H226.498Z" fill="#003E51"/>
<path d="M234.935 13.2621V18.4689C234.901 19.0054 234.901 19.5435 234.935 20.08C234.973 20.3429 235.06 20.5963 235.192 20.8272C235.313 21.0013 235.473 21.1452 235.66 21.2474C235.969 21.4097 236.299 21.5276 236.641 21.5977V22.3682H230.237V21.5977C230.704 21.5003 231.143 21.301 231.523 21.0139C231.745 20.7826 231.891 20.4896 231.943 20.1734C231.991 19.6062 231.991 19.0361 231.943 18.4689V5.25343C231.977 4.74032 231.977 4.22552 231.943 3.7124C231.912 3.44061 231.824 3.17828 231.686 2.94189C231.559 2.77292 231.4 2.63019 231.219 2.52161C230.897 2.36463 230.56 2.23951 230.214 2.14803V1.40086H237.81C239.694 1.26667 241.574 1.7238 243.185 2.7084C243.799 3.183 244.286 3.80295 244.6 4.51226C244.914 5.22156 245.046 5.99788 244.985 6.77111C245.019 8.06079 244.606 9.32259 243.816 10.3435C242.905 11.4406 241.696 12.2514 240.334 12.6784V12.8185C240.949 13.056 241.5 13.4315 241.947 13.9159C242.529 14.5907 243.023 15.3359 243.419 16.134L244.821 18.6557C245.124 19.2395 245.468 19.8013 245.85 20.3368C246.083 20.6819 246.375 20.9824 246.714 21.2241C247.074 21.4545 247.482 21.5983 247.906 21.6444V22.4149H243.653C243.248 21.8545 242.874 21.2708 242.531 20.6637L241.526 18.6791L240.17 16.1107C239.871 15.5221 239.536 14.9528 239.165 14.4062C238.979 14.1024 238.733 13.8401 238.441 13.6357C238.231 13.4808 237.993 13.3696 237.74 13.3088C237.366 13.2776 236.991 13.2776 236.618 13.3088L234.935 13.2621ZM234.935 2.82515V11.9312H236.665C237.394 11.9419 238.122 11.8794 238.838 11.7444C239.438 11.6001 239.995 11.3121 240.459 10.9054C240.923 10.4986 241.281 9.98528 241.503 9.40954C241.799 8.66767 241.942 7.87336 241.923 7.07465C241.942 6.26643 241.765 5.46563 241.409 4.73976C241.087 4.09759 240.561 3.58025 239.913 3.26878C239.055 2.88609 238.118 2.71015 237.179 2.7551C236.244 2.7551 235.465 2.7551 234.842 2.7551" fill="#003E51"/>
<path d="M103.234 45.5538C102.327 46.316 101.3 46.9234 100.196 47.3517C99.1548 47.7283 98.0536 47.9103 96.9469 47.8887C95.8314 47.9122 94.7237 47.6973 93.6982 47.2583C92.8367 46.8765 92.1056 46.2516 91.5947 45.4604C91.0886 44.6316 90.8292 43.676 90.8468 42.7053C90.8306 41.8998 90.9985 41.1013 91.3376 40.3704C91.6984 39.6156 92.207 38.9407 92.8334 38.3857C93.7026 37.6254 94.6507 36.9601 95.6614 36.4011C95.0067 35.5816 94.4644 34.6786 94.0487 33.7159C93.7433 32.9344 93.5848 32.1033 93.5813 31.2643C93.5598 30.3696 93.8126 29.4897 94.3058 28.7426C94.8269 27.9773 95.557 27.3776 96.4093 27.0148C97.3613 26.606 98.388 26.3992 99.4243 26.4077C100.077 26.4032 100.728 26.4737 101.364 26.6179C101.922 26.7385 102.452 26.9601 102.93 27.2716C103.37 27.5895 103.73 28.0052 103.982 28.4858C104.251 29.0456 104.38 29.6628 104.356 30.2836C104.391 30.6017 104.391 30.9228 104.356 31.2409C104.286 31.5496 104.176 31.8478 104.029 32.1282C103.876 32.4441 103.687 32.7417 103.468 33.0155C103.172 33.3577 102.852 33.6777 102.509 33.9728C102.03 34.3855 101.514 34.7529 100.967 35.0702C100.336 35.4671 99.658 35.8874 98.8867 36.3077C99.4009 36.9848 100.172 37.9421 101.224 39.1562C102.276 40.3704 103.281 41.4911 104.309 42.6819C104.928 42.0696 105.441 41.3596 105.828 40.5805C106.166 39.8981 106.342 39.1471 106.342 38.3857C106.378 37.9553 106.244 37.528 105.968 37.1949C105.641 36.8972 105.219 36.7237 104.776 36.7046V35.9574H109.17V36.7046C109.146 37.0128 109.091 37.3178 109.007 37.6152C108.951 37.9163 108.873 38.2129 108.773 38.5025C108.773 38.7826 108.586 39.0862 108.469 39.3664L108.049 40.2069C107.892 40.5082 107.712 40.797 107.511 41.0708C107.324 41.3744 107.114 41.6546 106.903 41.9347C106.693 42.2149 106.389 42.5418 106.109 42.822C105.828 43.1022 105.524 43.4291 105.221 43.7093C105.622 44.1999 106.06 44.6604 106.529 45.0868C106.83 45.3661 107.168 45.6019 107.534 45.7873C107.817 45.928 108.13 46 108.446 45.9975C108.754 45.9972 109.058 45.9253 109.334 45.7873C109.731 45.5479 110.106 45.2745 110.456 44.9701L111.157 45.834C110.593 46.4207 109.947 46.9239 109.241 47.3283C108.646 47.6551 107.98 47.8315 107.301 47.842C106.857 47.8457 106.416 47.7827 105.992 47.6552C105.575 47.4954 105.188 47.2665 104.847 46.9781C104.306 46.532 103.806 46.0398 103.351 45.5071M96.6196 37.4984C95.7447 38.0232 94.9949 38.7324 94.4227 39.5765C93.9526 40.307 93.7087 41.1598 93.7215 42.0281C93.7015 42.7945 93.8871 43.5524 94.2591 44.2229C94.5711 44.831 95.071 45.3223 95.6848 45.6239C96.3164 45.937 97.013 46.0969 97.7181 46.0908C98.5106 46.0955 99.2991 45.9773 100.055 45.7406C100.897 45.4473 101.686 45.0217 102.393 44.4798C102.065 44.1295 101.598 43.5692 100.99 42.8687L98.4427 39.8333L97.3208 38.4558L96.6196 37.4984ZM98.0687 35.1636C99.1958 34.5778 100.203 33.7858 101.037 32.8287C101.657 32.1404 102.012 31.2555 102.042 30.3303C102.05 29.8062 101.938 29.2872 101.715 28.8127C101.497 28.406 101.164 28.0729 100.756 27.8554C100.323 27.6331 99.8414 27.5208 99.3542 27.5285C98.798 27.5129 98.2483 27.6502 97.7649 27.9254C97.2952 28.1814 96.9127 28.5717 96.6664 29.0461C96.396 29.5899 96.2598 30.1903 96.2691 30.7973C96.2791 31.4624 96.4139 32.1198 96.6664 32.7353C97.0326 33.57 97.5038 34.3546 98.0687 35.0702" fill="#003E51"/>
<path d="M146.566 27.4583C146.231 27.5154 145.907 27.6257 145.607 27.7851C145.415 27.8872 145.247 28.0307 145.117 28.2054C144.972 28.4386 144.884 28.7025 144.86 28.9759C144.824 29.4968 144.824 30.0195 144.86 30.5403V43.8025C144.827 44.3078 144.827 44.8148 144.86 45.3202C144.899 45.5797 144.978 45.8317 145.093 46.0673C145.215 46.262 145.384 46.4227 145.584 46.5343C145.906 46.6913 146.243 46.8164 146.589 46.9079V47.6551H140.232V46.9079C140.66 46.8085 141.07 46.6431 141.447 46.4176C141.687 46.2026 141.851 45.9159 141.915 45.6004C142.006 45.0056 142.045 44.404 142.032 43.8025V37.9419C142.032 36.3775 142.032 34.8365 142.032 33.2721C142.032 31.7078 142.032 30.6104 142.195 30.0266H141.938L135.838 45.2268H134.085L128.546 29.7464H128.289C128.289 30.3769 128.289 31.4976 128.429 33.1554C128.569 34.8132 128.429 36.4709 128.429 38.1988V43.8025C128.396 44.3078 128.396 44.8148 128.429 45.3202C128.457 45.5821 128.537 45.836 128.663 46.0673C128.768 46.2664 128.931 46.4291 129.13 46.5343C129.461 46.6904 129.805 46.8155 130.159 46.9079V47.6551H124.573V46.9079C125.032 46.8254 125.465 46.6332 125.835 46.3475C126.076 46.1276 126.233 45.8303 126.279 45.507C126.314 44.9393 126.314 44.3701 126.279 43.8025V30.5403C126.312 30.0272 126.312 29.5124 126.279 28.9993C126.241 28.7364 126.153 28.4829 126.022 28.2521C125.902 28.0705 125.742 27.9188 125.554 27.8085C125.231 27.6616 124.894 27.5443 124.549 27.4583V26.6877H130.042L135.417 41.631L141.354 26.6877H146.542L146.566 27.4583Z" fill="#003E51"/>
<path d="M160.846 47.8887C159.695 47.9128 158.55 47.7064 157.48 47.2816C156.469 46.8807 155.577 46.2299 154.886 45.3904C154.101 44.4312 153.528 43.3173 153.203 42.1215C152.79 40.6 152.594 39.028 152.619 37.4517C152.568 35.4396 152.926 33.438 153.671 31.5678C154.23 30.023 155.249 28.6865 156.592 27.7386C157.976 26.8287 159.612 26.3793 161.267 26.4544C162.912 26.3755 164.542 26.799 165.941 27.6685C167.235 28.5134 168.226 29.7485 168.769 31.1942C169.441 33.0245 169.758 34.9659 169.704 36.9147C169.767 38.983 169.401 41.042 168.629 42.9621C167.977 44.5171 166.847 45.8252 165.403 46.6979C163.998 47.5503 162.373 47.9724 160.729 47.912M155.657 36.9381C155.519 39.4044 155.992 41.8668 157.036 44.1062C157.422 44.8832 158.03 45.5286 158.783 45.9608C159.536 46.393 160.4 46.5926 161.267 46.5345C162.316 46.5583 163.335 46.1827 164.118 45.4837C164.975 44.6185 165.581 43.5372 165.871 42.355C166.278 40.7846 166.474 39.1672 166.455 37.5451C166.503 35.6757 166.267 33.8099 165.754 32.0114C165.454 30.792 164.814 29.6828 163.908 28.8126C163.144 28.1486 162.162 27.7909 161.15 27.8086C160.327 27.7947 159.517 28.0133 158.813 28.4391C158.129 28.9156 157.568 29.5479 157.177 30.2836C156.703 31.1825 156.379 32.1525 156.218 33.1555C156.014 34.3981 155.912 35.6554 155.914 36.9147" fill="#003E51"/>
<path d="M180.245 46.2309H184.265C184.63 46.2596 184.997 46.2596 185.363 46.2309C185.629 46.1879 185.889 46.1093 186.134 45.9974C186.346 45.8834 186.536 45.7332 186.695 45.5537C186.885 45.3231 187.05 45.0726 187.186 44.8066C187.361 44.4283 187.51 44.0382 187.63 43.6391C187.63 43.1722 187.934 42.4717 188.144 41.5611H189.687L189.313 47.6551H175.57V46.908C176.03 46.8255 176.463 46.6333 176.832 46.3476C176.955 46.2425 177.055 46.114 177.127 45.9696C177.2 45.8253 177.242 45.6681 177.253 45.507C177.303 44.94 177.303 44.3696 177.253 43.8026V30.5404C177.301 30.0278 177.301 29.5119 177.253 28.9994C177.233 28.7359 177.153 28.4805 177.019 28.2522C176.899 28.0706 176.74 27.9189 176.552 27.8086C176.228 27.6617 175.892 27.5444 175.547 27.4583V26.7112H182.021V27.4583C181.685 27.5381 181.356 27.6475 181.039 27.7852C180.858 27.8844 180.699 28.0195 180.572 28.1822C180.426 28.4065 180.338 28.663 180.315 28.9293C180.266 29.4652 180.266 30.0045 180.315 30.5404L180.245 46.2309Z" fill="#003E51"/>
<path d="M199.503 43.8025C199.47 44.3078 199.47 44.8148 199.503 45.3202C199.531 45.5821 199.611 45.836 199.737 46.0673C199.842 46.2664 200.005 46.4291 200.204 46.5343C200.535 46.6904 200.879 46.8155 201.233 46.9079V47.6551H194.805V46.9079C195.272 46.8238 195.712 46.6319 196.091 46.3475C196.321 46.1219 196.469 45.8261 196.512 45.507C196.559 44.9398 196.559 44.3697 196.512 43.8025V30.5403C196.544 30.0272 196.544 29.5124 196.512 28.9993C196.506 28.7393 196.442 28.484 196.325 28.2521C196.205 28.0705 196.045 27.9188 195.857 27.8085C195.535 27.6576 195.198 27.5403 194.852 27.4583V26.6877H201.35V27.4583C201.009 27.5232 200.679 27.6331 200.368 27.7851C200.182 27.8874 200.022 28.0312 199.901 28.2054C199.756 28.4408 199.661 28.7029 199.62 28.9759C199.587 29.4969 199.587 30.0194 199.62 30.5403L199.503 43.8025Z" fill="#003E51"/>
<path d="M219.697 39.3428C220.047 39.9499 220.374 40.4869 220.608 40.9539C220.842 41.4209 221.122 41.9346 221.379 42.5183H221.59C221.59 41.8879 221.59 40.6504 221.45 38.7825C221.309 36.9146 221.45 35.2568 221.45 33.7625V30.5403C221.479 30.0193 221.479 29.497 221.45 28.9759C221.425 28.7132 221.346 28.4585 221.216 28.2288C221.104 28.055 220.951 27.9108 220.772 27.8085C220.458 27.6568 220.129 27.5393 219.79 27.4583V26.6877H225.306V27.4583C224.977 27.5371 224.656 27.6466 224.348 27.7851C224.167 27.8854 224.008 28.0203 223.88 28.1821C223.738 28.4079 223.65 28.6637 223.623 28.9292C223.574 29.4652 223.574 30.0044 223.623 30.5403V47.7485H221.683L213.129 33.4122C212.615 32.525 212.218 31.8712 212.007 31.4509C211.797 31.0306 211.563 30.6337 211.376 30.2368H211.119C211.119 31.0306 211.166 32.4549 211.259 34.5096C211.259 36.5877 211.259 38.6424 211.259 40.6737V43.8025C211.226 44.3078 211.226 44.8148 211.259 45.3202C211.287 45.5821 211.367 45.836 211.493 46.0673C211.598 46.2664 211.761 46.4291 211.961 46.5343C212.291 46.6904 212.635 46.8155 212.989 46.9079V47.6551H207.309V46.9079C207.774 46.819 208.214 46.6276 208.595 46.3475C208.825 46.1219 208.973 45.8261 209.016 45.507C209.063 44.9398 209.063 44.3697 209.016 43.8025V30.5403C209.049 30.0272 209.049 29.5124 209.016 28.9993C208.977 28.7364 208.89 28.4829 208.759 28.2521C208.639 28.0705 208.479 27.9188 208.291 27.8085C207.967 27.6616 207.631 27.5443 207.286 27.4583V26.6877H212.101L219.697 39.3428Z" fill="#003E51"/>
<path d="M240.918 47.6551V46.908C241.31 46.8283 241.694 46.711 242.063 46.5577C242.306 46.4588 242.505 46.2766 242.624 46.0441C242.759 45.7681 242.823 45.4634 242.811 45.1568C242.843 44.7839 242.843 44.409 242.811 44.0361C242.811 43.6391 242.601 43.1722 242.461 42.6818L241.876 40.6972H234.725L234.21 42.1915C233.998 42.7567 233.819 43.3335 233.673 43.9193C233.604 44.2656 233.565 44.6171 233.556 44.97C233.534 45.2159 233.564 45.4637 233.645 45.6971C233.725 45.9305 233.854 46.1442 234.023 46.3243C234.426 46.6625 234.925 46.8666 235.449 46.908V47.6551H228.905V46.908C229.208 46.8478 229.497 46.7281 229.754 46.5558C230.01 46.3834 230.23 46.1619 230.401 45.904C230.917 45.1428 231.333 44.3189 231.64 43.4523L238.043 26.4543H240.381L245.593 43.5691C245.85 44.363 246.06 44.97 246.247 45.3903C246.402 45.7606 246.633 46.0946 246.925 46.371C247.245 46.6319 247.621 46.8157 248.023 46.908V47.6551H240.918ZM235.028 39.3663H241.432L238.534 29.4664L235.028 39.3663Z" fill="#003E51"/>
<path d="M121.394 68.3655C121.286 68.2816 121.205 68.168 121.16 68.0386C121.062 67.8098 120.976 67.576 120.903 67.3381L118.87 60.707H117.725L115.201 67.3615C115.09 67.682 114.941 67.9879 114.756 68.2721C114.701 68.357 114.629 68.4297 114.545 68.4859C114.46 68.5421 114.365 68.5806 114.266 68.599V69.1593H116.86V68.599C116.688 68.589 116.524 68.5234 116.392 68.4122C116.339 68.357 116.299 68.2906 116.275 68.2179C116.25 68.1452 116.243 68.068 116.252 67.9919C116.232 67.8682 116.232 67.742 116.252 67.6183C116.303 67.3973 116.366 67.1791 116.439 66.9645L116.603 66.4976H119.197L119.384 67.1513L119.524 67.665C119.534 67.7971 119.534 67.9298 119.524 68.0619C119.552 68.1533 119.552 68.2507 119.524 68.3421C119.514 68.3752 119.496 68.4053 119.472 68.4297C119.447 68.4541 119.417 68.4722 119.384 68.4822L118.963 68.599V69.1593H122.002V68.599C121.87 68.5841 121.747 68.5267 121.651 68.4355M119.314 65.6803H116.86L117.982 62.4582L119.314 65.6803Z" fill="#003E51"/>
<path d="M134.506 64.6765L135.09 64.3263C135.318 64.1381 135.509 63.9083 135.651 63.6492C135.795 63.3508 135.867 63.023 135.861 62.6919C135.882 62.3028 135.775 61.9177 135.557 61.5945C135.337 61.2788 135.016 61.048 134.646 60.9407C134.139 60.7862 133.61 60.7152 133.08 60.7306H129.691V61.2676C129.822 61.2938 129.949 61.3411 130.065 61.4077C130.115 61.434 130.156 61.4747 130.182 61.5244C130.203 61.6009 130.203 61.6815 130.182 61.7579C130.182 61.8747 130.182 62.0614 130.182 62.3183V67.455C130.199 67.6648 130.199 67.8757 130.182 68.0855C130.172 68.1815 130.131 68.2717 130.065 68.3423C129.935 68.4191 129.792 68.4743 129.644 68.5057V69.0661H132.846C133.395 69.0757 133.941 68.9888 134.459 68.8093C134.89 68.6732 135.267 68.4033 135.534 68.0388C135.804 67.6233 135.935 67.1326 135.908 66.6378C135.937 66.19 135.814 65.7456 135.557 65.377C135.291 65.0584 134.944 64.8166 134.552 64.6765M131.818 65.1668H132.613C133.001 65.1476 133.39 65.203 133.758 65.3303C133.999 65.4282 134.204 65.5998 134.342 65.8206C134.576 66.3891 134.576 67.0267 134.342 67.5951C134.222 67.8277 134.023 68.0098 133.781 68.1088C133.415 68.2451 133.026 68.3086 132.636 68.2956H131.795L131.818 65.1668ZM134.015 63.9527C133.648 64.2359 133.192 64.3769 132.729 64.3496H131.818V61.5711H132.823C133.048 61.547 133.275 61.547 133.501 61.5711C133.675 61.6126 133.841 61.6836 133.991 61.7813C134.136 61.87 134.25 62.0002 134.319 62.1548C134.358 62.3553 134.358 62.5615 134.319 62.7619C134.336 62.9752 134.308 63.1899 134.235 63.3913C134.163 63.5927 134.048 63.7762 133.898 63.9294" fill="#003E51"/>
<path d="M149.698 61.1275C149.144 60.7855 148.502 60.6149 147.851 60.6372C147.205 60.6179 146.569 60.7972 146.028 61.1509C145.48 61.5136 145.056 62.035 144.813 62.6452C144.517 63.3874 144.374 64.1815 144.392 64.9801C144.389 65.6179 144.467 66.2535 144.626 66.8713C144.76 67.349 144.99 67.794 145.304 68.1789C145.592 68.5212 145.962 68.7861 146.379 68.9494C146.801 69.122 147.254 69.2093 147.711 69.2062C148.364 69.2259 149.008 69.0467 149.557 68.6926C150.116 68.3358 150.549 67.8132 150.796 67.1982C151.331 65.6875 151.331 64.0392 150.796 62.5285C150.577 61.9435 150.175 61.4443 149.651 61.1042M147.804 68.3657C147.509 68.3733 147.217 68.2959 146.965 68.1428C146.712 67.9896 146.509 67.7671 146.379 67.5018C145.983 66.6561 145.807 65.7249 145.865 64.7933C145.826 64.3193 145.826 63.843 145.865 63.369C145.921 62.994 146.039 62.631 146.215 62.295C146.352 62.0317 146.553 61.8069 146.799 61.6412C147.053 61.4875 147.344 61.4067 147.641 61.4077C147.993 61.4023 148.334 61.5271 148.599 61.7579C148.935 62.072 149.171 62.4781 149.277 62.9254C149.472 63.6081 149.559 64.3172 149.534 65.0268C149.544 65.6404 149.473 66.2528 149.324 66.848C149.227 67.2816 149.008 67.6785 148.693 67.9921C148.42 68.2447 148.059 68.3791 147.688 68.3657" fill="#003E51"/>
<path d="M163.604 65.6804H163.721C163.866 65.6974 164.003 65.754 164.118 65.8439C164.196 65.9309 164.252 66.0349 164.282 66.1474C164.301 66.3961 164.301 66.6459 164.282 66.8946V67.2448C164.293 67.3965 164.274 67.549 164.226 67.6933C164.178 67.8376 164.102 67.9709 164.001 68.0854C163.72 68.2757 163.382 68.3661 163.043 68.3422C162.672 68.3556 162.31 68.2212 162.038 67.9686C161.719 67.6362 161.493 67.2254 161.384 66.7778C161.231 66.1434 161.161 65.4922 161.173 64.8399C161.164 64.1925 161.251 63.5473 161.43 62.9253C161.553 62.4808 161.806 62.0827 162.155 61.7812C162.437 61.5268 162.803 61.3855 163.183 61.3842C163.43 61.3789 163.675 61.4185 163.908 61.501C164.093 61.5838 164.254 61.7123 164.375 61.8746C164.537 62.117 164.656 62.3856 164.726 62.6684V62.7852H165.544V60.9406C165.167 60.8383 164.785 60.7603 164.399 60.7071H163.3C162.628 60.6847 161.967 60.8725 161.407 61.2441C160.851 61.615 160.42 62.1436 160.168 62.7618C159.849 63.4977 159.697 64.2952 159.724 65.0967C159.655 66.1969 159.933 67.2911 160.519 68.2255C160.791 68.5835 161.145 68.8705 161.552 69.0616C161.959 69.2527 162.407 69.3424 162.856 69.3229C163.194 69.3227 163.532 69.2836 163.861 69.2061C164.115 69.1268 164.358 69.017 164.586 68.8792L165.006 69.3229L165.661 69.1594V66.988C165.647 66.8014 165.647 66.6141 165.661 66.4276C165.633 66.3362 165.633 66.2388 165.661 66.1474C165.649 66.0857 165.649 66.0224 165.661 65.9606C165.744 65.8952 165.839 65.8475 165.941 65.8205V65.1434H163.604V65.6804Z" fill="#003E51"/>
<path d="M180.829 68.3655C180.728 68.2753 180.648 68.1636 180.595 68.0386C180.595 67.8751 180.455 67.6417 180.362 67.3381L178.305 60.707H177.16L174.659 67.3615C174.552 67.6876 174.394 67.9949 174.191 68.2721C174.085 68.4385 173.917 68.556 173.724 68.599H173.584V69.1593H176.412V68.599C176.233 68.589 176.061 68.5238 175.921 68.4122C175.921 68.4122 175.921 68.202 175.921 67.9919C175.911 67.8676 175.911 67.7426 175.921 67.6183L176.131 66.9645L176.295 66.4976H178.866L179.053 67.1513C179.053 67.3381 179.053 67.5249 179.053 67.665C179.075 67.7964 179.075 67.9305 179.053 68.0619C179.079 68.1535 179.079 68.2505 179.053 68.3421C179.037 68.3759 179.015 68.4059 178.986 68.4301C178.958 68.4543 178.925 68.4721 178.889 68.4822L178.492 68.599V69.1593H181.507V68.599C181.37 68.5779 181.241 68.5216 181.133 68.4355M178.796 65.6803H176.692L177.837 62.4582L178.796 65.6803Z" fill="#003E51"/>
<path d="M195.016 61.7344C194.661 61.3876 194.228 61.1313 193.754 60.9873C193.15 60.7926 192.517 60.7057 191.884 60.7304H189.126V61.2675C189.25 61.2926 189.369 61.3401 189.477 61.4075C189.507 61.4166 189.534 61.4316 189.559 61.4517C189.583 61.4717 189.602 61.4964 189.617 61.5243C189.637 61.6009 189.637 61.6812 189.617 61.7578C189.632 61.9443 189.632 62.1317 189.617 62.3182V67.4549C189.632 67.6492 189.632 67.8443 189.617 68.0386C189.626 68.1162 189.626 68.1946 189.617 68.2721C189.602 68.3 189.583 68.3247 189.559 68.3447C189.534 68.3648 189.507 68.3798 189.477 68.3889C189.367 68.4461 189.248 68.4855 189.126 68.5056V69.066H191.463C192.011 69.0717 192.558 69.0326 193.099 68.9492C193.48 68.8855 193.85 68.7676 194.198 68.599C194.56 68.401 194.885 68.1401 195.156 67.8285C195.476 67.4359 195.714 66.9834 195.857 66.4976C196.026 65.9136 196.105 65.3074 196.091 64.6997C196.1 64.106 196.013 63.5147 195.834 62.9486C195.679 62.4736 195.415 62.0416 195.062 61.6877M191.837 68.2488H191.276V61.5476H191.907C192.406 61.5324 192.899 61.6535 193.333 61.8979C193.751 62.1362 194.08 62.5054 194.268 62.9486C194.502 63.5589 194.614 64.2097 194.595 64.8632C194.621 65.2285 194.621 65.5952 194.595 65.9606C194.553 66.2646 194.475 66.5625 194.361 66.8478C194.272 67.096 194.137 67.3255 193.964 67.525C193.829 67.7161 193.653 67.8755 193.45 67.9919C193.237 68.1041 193.009 68.1829 192.772 68.2254C192.485 68.2636 192.194 68.2636 191.907 68.2254" fill="#003E51"/>
<path d="M209.764 61.1275C209.23 60.8273 208.623 60.6818 208.011 60.7072C207.365 60.6878 206.728 60.8672 206.188 61.2209C205.64 61.5836 205.215 62.105 204.972 62.7152C204.677 63.4574 204.534 64.2515 204.552 65.0501C204.548 65.6879 204.627 66.3235 204.785 66.9413C204.919 67.419 205.15 67.864 205.463 68.2489C205.752 68.5912 206.121 68.8561 206.538 69.0194C206.961 69.192 207.414 69.2793 207.87 69.2762C208.524 69.2959 209.168 69.1167 209.717 68.7626C210.276 68.4057 210.709 67.8832 210.955 67.2682C211.251 66.526 211.394 65.7319 211.376 64.9333C211.396 64.1387 211.269 63.3472 211.002 62.5984C210.783 62.0135 210.381 61.5143 209.857 61.1742M208.011 68.389C207.715 68.3966 207.424 68.3192 207.171 68.166C206.918 68.0129 206.715 67.7904 206.585 67.5251C206.189 66.6794 206.013 65.7482 206.071 64.8166C206.071 64.3394 206.11 63.8631 206.188 63.3923C206.244 63.0173 206.362 62.6543 206.538 62.3183C206.665 62.0486 206.867 61.8212 207.12 61.6638C207.373 61.5063 207.666 61.4255 207.964 61.431C208.316 61.4256 208.657 61.5504 208.922 61.7812C209.258 62.0952 209.494 62.5014 209.6 62.9487C209.795 63.6314 209.882 64.3405 209.857 65.0501C209.867 65.6637 209.796 66.276 209.647 66.8713C209.55 67.3049 209.331 67.7018 209.016 68.0154C208.743 68.268 208.382 68.4024 208.011 68.389Z" fill="#003E51"/>
<path d="M224.371 65.7506C224.198 65.4449 223.968 65.1754 223.693 64.9567C223.306 64.6864 222.9 64.4445 222.478 64.2329C222.153 64.0927 221.847 63.9123 221.566 63.6959C221.382 63.5689 221.231 63.401 221.122 63.2056C221.022 63.0028 220.973 62.778 220.982 62.5518C220.983 62.3387 221.04 62.1296 221.146 61.9447C221.25 61.7851 221.395 61.6561 221.566 61.5711C221.765 61.4832 221.981 61.4432 222.197 61.4544C222.421 61.4121 222.651 61.4121 222.875 61.4544C223.045 61.53 223.191 61.6512 223.296 61.8046C223.44 62.0451 223.55 62.3044 223.623 62.5751V62.6919H224.465V60.824C224.106 60.7195 223.738 60.6492 223.366 60.6138C223.07 60.59 222.773 60.59 222.478 60.6138C221.988 60.6024 221.501 60.698 221.052 60.894C220.647 61.0449 220.303 61.3236 220.071 61.6879C219.801 62.0862 219.669 62.562 219.697 63.0421C219.702 63.3597 219.782 63.6716 219.93 63.9527C220.086 64.2435 220.301 64.4981 220.561 64.6999C220.908 64.9749 221.284 65.2099 221.683 65.4004C222.048 65.5776 222.399 65.7805 222.735 66.0074C222.922 66.148 223.08 66.3222 223.202 66.5211C223.303 66.7407 223.351 66.9804 223.343 67.2216C223.354 67.3913 223.331 67.5615 223.275 67.722C223.218 67.8825 223.13 68.0299 223.015 68.1555C222.883 68.2738 222.727 68.3638 222.558 68.42C222.39 68.4762 222.211 68.4974 222.034 68.4824C221.77 68.49 221.507 68.4423 221.263 68.3423C221.074 68.2634 220.918 68.1237 220.818 67.9454C220.659 67.7153 220.555 67.4516 220.515 67.1749V67.0581H219.697V68.9494C220.405 69.1474 221.135 69.2572 221.87 69.2763C222.241 69.2801 222.611 69.233 222.969 69.1362C223.288 69.069 223.587 68.9285 223.843 68.7259C224.098 68.5233 224.303 68.2641 224.441 67.9687C224.589 67.6221 224.661 67.2479 224.651 66.8713C224.655 66.5052 224.566 66.144 224.394 65.8206" fill="#003E51"/>
<path d="M17.3187 61.4776V48.4489V38.4555V35.9105V21.5509L11.0083 15.2234V35.9105V38.4555V54.7531V67.8051V69.9999H17.7628L36.2734 51.4842L31.8094 47.0246L17.3187 61.4776Z" fill="#003E51"/>
<path d="M18.791 49.0327V57.9753L31.8092 44.97L38.33 51.4843L56.864 70H63.5951V67.8052L31.8092 36.0273L18.791 49.0327Z" fill="#003E51"/>
<path d="M57.2847 8.52235V21.551V35.9106V39.0627V48.449L63.5952 54.7532V39.0627V35.9106V15.2468V2.1948V0H56.8407L38.3301 18.5157L42.7941 22.9753L57.2847 8.52235Z" fill="#003E51"/>
<path d="M67.8488 0L65.0676 2.80187V11.7445L68.2695 8.52235V35.9106V39.0627V61.4776L65.0676 58.2555L55.8356 49.0327L42.7941 36.0274L6.7545 0H0V35.9106V40.3002V70H6.7545L9.53576 67.1981V58.2555L6.3338 61.4776V40.3002V35.9106V8.52235L9.53576 11.7445L18.7677 20.944L38.33 40.487L67.8488 70H74.6033V39.0627V35.9106V0H67.8488Z" fill="#003E51"/>
<path d="M55.8357 20.944V12.0247L42.7942 25.03L36.2734 18.5157L17.7628 0H11.0083V2.1948L42.7942 33.9726L55.8357 20.944Z" fill="#003E51"/>
<g clip-path="url(#clip1_158_203)">
<path d="M246.769 28.6154V28.4616C246.769 28.3077 246.615 28.1539 246.615 28.1539C246.615 28 246.769 27.8462 246.769 27.5385C246.769 27.3846 246.769 27.2308 246.615 27.0769C246.461 26.9231 246.154 26.9231 246 26.9231C245.846 26.9231 245.538 26.9231 245.385 26.9231V29.0769H245.846V28.1539H246C246.154 28.1539 246.308 28.1539 246.308 28.4616C246.308 28.6154 246.461 28.9231 246.461 28.9231H246.923V28.7692C246.769 28.9231 246.769 28.7692 246.769 28.6154ZM246.308 27.5385C246.308 27.6923 246.154 27.8462 246 27.8462H245.846V27.3846H246C246.154 27.3846 246.308 27.3846 246.308 27.5385Z" fill="#003E51"/>
<path d="M246 26C244.923 26 244 26.9231 244 28C244 29.0769 244.923 30 246 30C247.077 30 248 29.0769 248 28C248 26.9231 247.077 26 246 26ZM246 29.5385C245.077 29.5385 244.308 28.7692 244.308 27.8462C244.308 26.9231 245.077 26.1538 246 26.1538C246.923 26.1538 247.692 26.9231 247.692 27.8462C247.538 28.9231 246.923 29.5385 246 29.5385Z" fill="#003E51"/>
</g>
</g>
<defs>
<clipPath id="clip0_158_203">
<rect width="248" height="70" fill="white"/>
</clipPath>
<clipPath id="clip1_158_203">
<rect width="4" height="4" fill="white" transform="translate(244 26)"/>
</clipPath>
</defs>
</svg>
